Coordinates
version=1
nRows=15
nColumns=42
inDegrees=yes

Units are S.I. units (second, meters, Newtons, ...)
If the header above contains a line with 'inDegrees', this indicates whether rotational values are in degrees (yes) or radians (no).

endheader
time	pelvis_tilt	pelvis_list	pelvis_rotation	pelvis_tx	pelvis_ty	pelvis_tz	hip_flexion_r	hip_adduction_r	hip_rotation_r	knee_angle_r	knee_adduction_r	knee_angle_r_beta	ankle_angle_r	subtalar_angle_r	mtp_angle_r	hip_flexion_l	hip_adduction_l	hip_rotation_l	knee_angle_l	knee_adduction_l	knee_angle_l_beta	ankle_angle_l	subtalar_angle_l	mtp_angle_l	lumbar_extension	lumbar_bending	lumbar_rotation	arm_flex_r	arm_add_r	arm_rot_r	elbow_flex_r	pro_sup_r	wrist_flex_r	wrist_dev_r	arm_flex_l	arm_add_l	arm_rot_l	elbow_flex_l	pro_sup_l	wrist_flex_l	wrist_dev_l
      4.89000000	      8.07117607	      6.49008072	     11.72944896	      1.26544526	      0.89508463	      0.19048028	     -8.08956229	     -7.32133012	    -22.04414647	     44.99485304	      0.04766636	      0.78530833	      5.70554183	      3.90387321	     -7.50002806	     10.36546448	     -0.46665251	     -2.70522283	     22.43400370	      4.60860242	      0.39154723	      9.37348928	     30.13778354	     -7.50002806	    -17.10552807	     -6.29789448	      0.78649470	    -20.07898361	     -9.22991597	    -15.85028327	     61.48772180	     90.00000001	      0.00000000	      0.00000000	     -5.51443086	    -14.41588169	     11.19976095	     85.98659645	     90.00000001	      0.00000000	      0.00000000
      4.90000000	      8.18344468	      6.51004175	     11.82649180	      1.27049360	      0.89672204	      0.18957964	     -6.79072567	     -8.06891050	    -19.31667659	     48.00987737	      1.80438583	      0.83793043	      1.12822638	     -1.67656353	     -7.50002595	      9.31152067	     -0.59993113	     -3.52816799	     21.44123469	      4.57672702	      0.37422014	      8.98430112	     31.60060085	     -7.50002595	    -17.33061551	     -6.30592881	      0.69531802	    -20.03226307	     -9.03438252	    -16.49126906	     61.76145981	     90.00000001	      0.00000000	      0.00000000	     -5.58111683	    -15.03508699	     11.90915487	     86.96765347	     90.00000001	      0.00000000	      0.00000000
      4.91000000	      7.59138917	      5.68714068	     12.10023293	      1.27555429	      0.89603904	      0.18740913	     -4.22481659	     -8.24228892	    -18.18586084	     51.40897740	      2.40277207	      0.89725592	     -1.80151755	     -2.98275673	     -7.50002455	      9.54177790	     -1.43559720	     -4.14988933	     21.16138511	      4.59651408	      0.36933584	      9.71708082	     32.77291693	     -7.50002455	    -16.49513351	     -5.41815488	      0.66355817	    -20.27352659	     -9.19314421	    -16.54218763	     61.86565184	     90.00000001	      0.00000000	      0.00000000	     -6.06081294	    -15.03442488	     12.03932546	     88.40063427	     90.00000001	      0.00000000	      0.00000000
      4.92000000	      7.54147003	      5.44490542	     12.13636418	      1.28042986	      0.89622577	      0.18614329	     -2.19995968	     -8.97192993	    -17.67049961	     54.77960297	      2.54979892	      0.95608443	     -4.08799796	     -2.74860585	     -7.50002410	      8.73851284	     -1.84940956	     -4.50634329	     20.21928173	      4.84928181	      0.35289304	     10.08460473	     33.26065860	     -7.50002410	    -16.45971357	     -5.13363019	      0.66518225	    -20.39563636	     -9.18606454	    -16.49105234	     61.86396910	     90.00000001	      0.00000000	      0.00000000	     -6.01263470	    -15.01144300	     12.08830642	     89.00568433	     90.00000001	      0.00000000	      0.00000000
      4.93000000	      7.47834328	      5.45339686	     12.06560777	      1.28503963	      0.89628835	      0.18540828	      0.07011973	     -9.91053441	    -17.13510986	     58.16631021	      2.45948604	      1.01519363	     -7.11111875	     -2.88419472	     -7.50002363	      7.94864724	     -2.04298771	     -4.96651944	     19.31742749	      5.08542655	      0.33715271	     10.38494919	     34.00257683	     -7.50002363	    -16.53721616	     -5.20632951	      0.67587905	    -20.45497310	     -9.11634335	    -16.42803619	     61.88378659	     90.00000001	      0.00000000	      0.00000000	     -6.08713583	    -15.24461473	     12.14935262	     90.02841595	     90.00000001	      0.00000000	      0.00000000
      4.94000000	      7.57053561	      5.41317492	     12.01918642	      1.28915422	      0.89614692	      0.18552551	      2.21089163	    -10.49875171	    -16.88083165	     61.23675562	      1.93848642	      1.06878301	     -9.90043594	     -4.27323523	     -7.50002254	      7.24630512	     -2.58069800	     -5.61698963	     18.83481636	      5.58507781	      0.32872956	     10.68199983	     35.21694909	     -7.50002254	    -16.89360805	     -5.25752909	      0.51377718	    -20.14094787	     -9.02063936	    -16.46038143	     61.93146687	     90.00000001	      0.00000000	      0.00000000	     -6.26376787	    -15.91084760	     12.37655831	     91.74665312	     90.00000001	      0.00000000	      0.00000000
      4.95000000	      7.56543714	      5.71711757	     11.64578963	      1.29339120	      0.89599880	      0.18541641	      4.50564278	    -11.55943128	    -16.70296625	     64.27071020	      1.07668926	      1.12173551	    -10.15851169	     -4.52737131	     -7.50002206	      6.19290404	     -2.58054564	     -6.05826801	     17.68851102	      6.08723315	      0.30872276	     10.87703929	     35.51823307	     -7.50002206	    -17.16642388	     -5.69247431	      0.64932039	    -19.89664815	     -8.97639667	    -16.57035878	     62.00548083	     90.00000001	      0.00000000	      0.00000000	     -6.17566769	    -16.24855545	     12.37677382	     92.50242160	     90.00000001	      0.00000000	      0.00000000
      4.96000000	      7.71500644	      6.09218893	     11.44701907	      1.29762865	      0.89596832	      0.18543276	      6.33041905	    -12.56029737	    -17.34034404	     66.65335215	     -0.12617428	      1.16332045	     -8.84121579	     -6.65287166	     -7.50002165	      4.82040923	     -2.59731575	     -6.41061095	     16.27453806	      6.72675384	      0.28404427	     10.96308199	     35.94396439	     -7.50002165	    -17.69776405	     -6.19660451	      0.44426066	    -19.40884138	     -8.83713615	    -16.82985951	     62.09411107	     90.00000001	      0.00000000	      0.00000000	     -6.19790014	    -16.82222087	     12.41545982	     93.61688824	     90.00000001	      0.00000000	      0.00000000
      4.97000000	      7.79578192	      6.46074617	     11.34807561	      1.30202011	      0.89575371	      0.18551691	      8.03820798	    -13.47206441	    -17.87781454	     68.46207028	     -1.01418689	      1.19488854	     -6.89863090	     -9.25992151	     -7.50002133	      3.34488950	     -2.57678622	     -6.53624265	     14.51224578	      7.36052298	      0.25328647	     10.96562475	     36.18658536	     -7.50002133	    -18.12368562	     -6.66197681	      0.27540630	    -19.05327801	     -8.60048511	    -17.10777152	     62.07122063	     90.00000001	      0.00000000	      0.00000000	     -6.08386522	    -17.39192046	     12.50701603	     94.44730443	     90.00000001	      0.00000000	      0.00000000
      4.98000000	      7.69609517	      6.69645072	     11.38744847	      1.30637513	      0.89532855	      0.18567416	      9.81452057	    -14.27228676	    -18.59263131	     69.56485043	     -1.87885613	      1.21413568	     -4.98473150	    -11.68927591	     -7.50002100	      2.00209180	     -2.63701902	     -6.42435342	     12.50824303	      7.96696766	      0.21831002	     10.82277544	     36.26950469	     -7.50002100	    -18.33999865	     -6.99436242	      0.01385116	    -18.71579741	     -8.29800108	    -17.31418799	     61.80961515	     90.00000001	      0.00000000	      0.00000000	     -5.96625124	    -17.97281042	     12.67129297	     95.04195057	     90.00000001	      0.00000000	      0.00000000
      4.99000000	      7.38807769	      6.91800379	     11.53946431	      1.31017132	      0.89460927	      0.18546091	     11.80105267	    -15.23288149	    -19.15706311	     70.37454154	     -2.48739367	      1.22826746	     -3.17891141	    -13.13369229	     -7.50002026	      1.07974026	     -2.62739378	     -6.44386358	     10.78968922	      8.53888195	      0.18831560	     10.62330438	     36.20664094	     -7.50002026	    -18.37285694	     -7.24296061	     -0.36493778	    -18.29552551	     -8.00690065	    -17.50980975	     61.30593920	     90.00000001	      0.00000000	      0.00000000	     -5.73205894	    -18.50493983	     12.90385602	     95.34452036	     90.00000001	      0.00000000	      0.00000000
      5.00000000	      7.11029647	      7.04503191	     11.77713477	      1.31377856	      0.89383382	      0.18507484	     13.54662377	    -16.07082233	    -19.69509239	     70.41756090	     -2.79849868	      1.22901829	     -2.43143101	    -13.62217915	     -7.50001999	      0.48744907	     -2.76753982	     -7.02168234	      9.70397155	      9.03438060	      0.16936625	     10.56439520	     36.72927561	     -7.50001999	    -18.46739548	     -7.30452480	     -0.76115672	    -18.04313982	     -7.87211539	    -17.48646734	     61.18495943	     90.00000001	      0.00000000	      0.00000000	     -5.39710327	    -18.86539970	     12.90867156	     95.35330775	     90.00000001	      0.00000000	      0.00000000
      5.01000000	      6.61338829	      7.27558809	     12.03245327	      1.31662263	      0.89278543	      0.18432900	     15.48856041	    -17.01882998	    -19.92044986	     69.94703992	     -3.00689900	      1.22080615	     -0.62109012	    -13.13061701	     -7.50001913	      0.52272955	     -2.63538142	     -7.70732302	      9.32196304	      9.34353858	      0.16269895	     10.20206116	     37.17791743	     -7.50001913	    -18.39923633	     -7.46374000	     -1.21378238	    -17.62402611	     -7.84095043	    -17.33167757	     60.81332231	     90.00000001	      0.00000000	      0.00000000	     -4.90696397	    -19.22837104	     13.19580018	     95.04982732	     90.00000001	      0.00000000	      0.00000000
      5.02000000	      6.42176720	      7.45703658	     12.61105416	      1.31951304	      0.89242608	      0.18338670	     16.55169057	    -17.71659064	    -20.16442140	     68.56470516	     -2.83307469	      1.19667986	      1.07512336	    -13.25139056	     -7.50001879	      0.47728774	     -2.59796458	     -7.89509430	      9.30797936	      9.58954121	      0.16245489	     10.22106513	     37.54964702	     -7.50001879	    -18.72455019	     -7.37999048	     -1.89172304	    -17.32092616	     -7.81834528	    -17.24949117	     60.89235233	     90.00000001	      0.00000000	      0.00000000	     -4.37383616	    -19.53056372	     13.22095593	     94.68773728	     90.00000001	      0.00000000	      0.00000000
      5.03000000	      6.16991298	      7.59511778	     13.35842034	      1.32223490	      0.89232136	      0.18268735	     17.54757354	    -18.33459837	    -20.36566996	     66.76559233	     -2.55558763	      1.16527941	      3.01480967	    -12.48253286	     -7.50001825	      0.77720389	     -2.61453018	     -7.91262820	      9.73258798	      9.78359410	      0.16986571	     10.12171390	     37.80383509	     -7.50001825	    -18.99437399	     -7.26104355	     -2.69821631	    -17.01519871	     -7.75264524	    -16.92877391	     60.65735102	     90.00000001	      0.00000000	      0.00000000	     -3.61391589	    -19.80261003	     13.44068455	     93.89216920	     90.00000001	      0.00000000	      0.00000000
